<svg xmlns="http://www.w3.org/2000/svg" viewBox="0 0 165.9 159.53"><g id="Layer_2" data-name="Layer 2"><g id="Layer_1-2" data-name="Layer 1"><path d="M121.24,0h-.4A45.4,45.4,0,0,0,83,20.74,45.37,45.37,0,0,0,45.07,0h-.4A45.1,45.1,0,0,0,0,45.07C0,59.83,6.46,80.76,19.06,98,43.07,130.81,83,159.53,83,159.53S122.83,130.82,146.84,98c12.6-17.23,19.06-38.16,19.06-52.92A45.1,45.1,0,0,0,121.24,0Zm-5.7,100.51a8.92,8.92,0,0,1-8.31-5.74H97.76a3,3,0,0,1-2.81-2L92,84l-9.2,32.14A3,3,0,0,1,80,118.27H79.8A3,3,0,0,1,77,115.81l-9.48-57L60.63,92.53a3,3,0,0,1-2.87,2.24H44.43a3,3,0,1,1-.25-5.92H55.43l9.81-45.37a3,3,0,0,1,5.84.24l9.68,58.17L89,73.13A2.91,2.91,0,0,1,91.78,71h.06a3,3,0,0,1,2.81,2l5.26,15.81h7.2a8.9,8.9,0,1,1,8.45,11.67Z" style="fill:#2d6fe0"/></g></g></svg>