<svg xmlns="http://www.w3.org/2000/svg" viewBox="0 0 315 245"><defs><style>.cls-1{opacity:0.5;}</style></defs><g id="Layer_2" data-name="Layer 2"><g id="Layer_1-2" data-name="Layer 1"><path class="cls-1" d="M183.73,236V183.75A8.75,8.75,0,0,0,175,175H140a8.75,8.75,0,0,0-8.75,8.75v52.34a8.76,8.76,0,0,1-8.71,8.75L61.23,245a8.75,8.75,0,0,1-8.75-8.75V146.59l100.84-83a6.65,6.65,0,0,1,8.36,0l100.8,83v89.69a8.75,8.75,0,0,1-8.75,8.75l-61.25-.17a8.75,8.75,0,0,1-8.75-8.75Z"/><path d="M313.51,129.25,299.57,146.2a6.56,6.56,0,0,1-9.24.91h0l-128.64-106a6.65,6.65,0,0,0-8.36,0l-128.64,106a6.56,6.56,0,0,1-9.23-.91L1.5,129.25A6.56,6.56,0,0,1,2.38,120L140.79,6a26.24,26.24,0,0,1,33.36,0L223.1,46.27V6.56A6.57,6.57,0,0,1,229.67,0h30.62a6.56,6.56,0,0,1,6.56,6.56V82.31L312.57,120a6.55,6.55,0,0,1,1,9.23l0,0Z"/></g></g></svg>