<svg xmlns="http://www.w3.org/2000/svg" viewBox="0 0 226.48 292.71"><g id="Layer_2" data-name="Layer 2"><g id="Layer_1-2" data-name="Layer 1"><path d="M226.48,254.38A184.56,184.56,0,0,1,0,253.38l48.66-22.81a46.16,46.16,0,0,0,6.65-3.82c.64-.44,1.28-.9,1.89-1.38A46.23,46.23,0,0,0,70,210.28a44.72,44.72,0,0,0,4.64-14.48,67.05,67.05,0,0,0,.74-9.91c0-3.46-.09-6.92-.21-10.38-.07-2.26-.13-4.53-.16-6.79q-.06-4.74-.1-9.51l2,1,5.2,2.69,2.41.41,27.88,4.74,31.12,5.3.94,32,.31,10.46.15,5.08v.31l1,.42,11.07,4.5Z" fill="#f2a196"/><path d="M144.89,221.2c-3.7.43-10-1-13.48-2.89-13-7.18-19.49-13-26.38-18.08-8.2-6.06-29.8-25.5-29.8-25.5-.07-2.26-.21-3.76-.24-6q-.06-4.74-.1-9.51l2,1,5.2,2.69,2.41.41,27.88,4.74,31.12,5.3.94,32,.31,10.46.15,5.08v.3Z" fill="#e88870"/><path d="M226.48,254.38A184.56,184.56,0,0,1,0,253.38l48.66-22.81a46.16,46.16,0,0,0,6.65-3.82c.64-.44,1.28-.9,1.89-1.38,23.55,16.76,55.69,27.33,83.49,14.82,6.62-3,12.7-7.84,16.3-14.06Z" fill="#ff2609"/><path d="M208.58,54.1c-.09.59-.2,1.17-.33,1.75a31.94,31.94,0,0,1-3.31,8.49l-.08.14c-.57,1-1.18,2-1.84,3a73.82,73.82,0,0,1-5.72,7.35l-1.23,1.37c-.83.93-1.67,1.84-2.51,2.74,4.45-1,8.76,3.15,9.55,7.63s-1,9-3.21,13c-3.87,7.08-9.45,11.79-14.36,17.94-3.68,4.58-5.72,10-9.73,14.38l-.3.33c-10.59,11.12-27.31,13.72-41.23,18.47-5,1.72-59.22,17.12-59.22,20.48,0-.73-5.31-6-12-12.41-24-22.79-31.89-58-17.61-88.2C60.8,38.06,95.66,14.87,128.86,3.73c10.38-3.48,22.16-5.82,32-1S175.6,22.5,167.44,29.8a26.17,26.17,0,0,1,17.93-5.21,24.5,24.5,0,0,1,15.72,7.07A27.07,27.07,0,0,1,208,43.74,25,25,0,0,1,208.58,54.1Z" fill="#845161"/><path d="M208.58,54.1c-.09.59-.2,1.17-.33,1.75-.09.17-.18.35-.27.55-1.13,2.58-1.65,5.36-3,7.94l-.08.14c-.57,1-1.18,2-1.84,3a66.68,66.68,0,0,1-5.72,7.35l-1.27,1.37c-.83.93-1.67,1.84-2.51,2.74,4.45-1,8.76,3.15,9.55,7.63s-1,9-3.21,13c-3.87,7.08-9.45,11.79-14.36,17.94-3.68,4.58-5.72,10-9.73,14.38a37.63,37.63,0,0,1-8.54-19.47c-1.64-13.26-.64-27.71-1.09-41.13-.28-8.44-3-10,2.06-16.83a74.72,74.72,0,0,1,14-13.29c4.08-2.69,9.33-3.11,14.2-2.42a23.51,23.51,0,0,1,11.58,5A24.94,24.94,0,0,1,208.58,54.1Z" fill="#69303a"/><circle cx="65.05" cy="131.2" r="17" fill="#f2a196"/><circle cx="70.44" cy="131.2" r="15.22" fill="#e88870"/><path d="M70.67,115.2l4.38,55,66.44,40.88a19.76,19.76,0,0,0,24.68-9.88,267.38,267.38,0,0,0,13.14-31.88c2.64-7.84,5.22-15.89,5.47-24.23s-2.12-17-5-24.7c-.3-.81-1.9-3.3-1.76-4.15q1.66-10,3.32-19.94c1.26-7.51,2.87-15.35,1-22.9-2.13-8.66-8.67-12.35-14.05-18.82-14.16,18.24-37.44,28.55-57.77,39C100.07,99,70.67,115.2,70.67,115.2Z" fill="#f2a196"/><path d="M181.14,163.7c-4.31,16.92-9.08,34.35-12.63,40.61-2.66,4.67-6.37,5.57-12.24,7A51.47,51.47,0,0,1,114,202.37L74.89,170.89c-.6-5.89-1-6.79-1.29-12.71-.14-2.68-1-5.36-.36-8a6.92,6.92,0,0,0,1.7,3.73c4.73,6.42,10.25,13.67,18.11,16.31,8.2,2.75,17.53,3.18,25.45-.7,6.89-3.38,13.64-7.79,20.83-10.57a35.19,35.19,0,0,1,15.11-2.61c7.34.5,10.48,3.81,15.85,8.18,1.76,1.44,3.73,2.94,6,3C178.85,167.47,179,165.35,181.14,163.7Z" fill="#845161"/><path d="M119.79,113c6.1,0,6.1,9.38,0,9.43h-.28c-6.1,0-6.1-9.38,0-9.43Z" fill="#00214e"/><path d="M169.91,111.61c5.67,0,5.67,8.7,0,8.75h-.25c-5.66,0-5.66-8.7,0-8.75Z" fill="#00214e"/><path d="M145.2,110.29c-.08.35,13.36,36.13,13.36,36.13l-17.94.87" fill="none" stroke="#00214e" stroke-miterlimit="10"/><path d="M102.72,103.37a80.58,80.58,0,0,1,28.13-.79" fill="none" stroke="#00214e" stroke-miterlimit="10"/><path d="M161.77,103.48a55.66,55.66,0,0,1,17.45-1.21" fill="none" stroke="#00214e" stroke-miterlimit="10"/><path d="M139.59,166.2a28,28,0,0,0,17.4.32c.61-.19.35-1.16-.26-1a27.18,27.18,0,0,1-16.87-.31c-.61-.21-.87.75-.27,1Z" fill="#f2a196"/></g></g></svg>