<svg xmlns="http://www.w3.org/2000/svg" viewBox="0 0 627.29 904.03"><g id="Layer_2" data-name="Layer 2"><g id="Layer_1-2" data-name="Layer 1"><ellipse cx="361.38" cy="861.33" rx="265.91" ry="42.71" style="fill:#2d6fe0;opacity:0.10000000149011612;isolation:isolate"/><rect x="352.84" y="43.2" width="17.11" height="385.24" style="fill:#535461"/><path d="M477.47,427.27l-1.06,17.35-1.53,24.56-.63,10.21L472.75,504l-.65,10.21-1.53,24.56L453.32,817.26a47.21,47.21,0,0,1-47.1,44.26H316.55a47.2,47.2,0,0,1-47.08-44.26L252.31,538.52,250.78,514l-.63-10.2-1.52-24.56L248,469l-1.53-24.56-1.09-17.35a24.56,24.56,0,0,1,23.13-25.92c.47,0,.95,0,1.43,0H453.35a24.4,24.4,0,0,1,24.18,24.61C477.53,426.24,477.51,426.76,477.47,427.27Z" style="fill:#3f3d56"/><polygon points="476.41 444.62 474.88 469.1 247.89 469.1 246.36 444.62 476.41 444.62" style="fill:#9d9cb5"/><polygon points="474.25 479.31 472.75 503.81 250.04 503.81 248.52 479.31 474.25 479.31" style="fill:#9d9cb5"/><polygon points="472.1 514.05 470.6 538.52 252.2 538.52 250.67 514.05 472.1 514.05" style="fill:#9d9cb5"/><path d="M220.24,187.59c99.64,72.09,141.23,184.85,141.23,184.85s-120.08-4.12-219.74-76.22S.57,111.4.57,111.4,120.58,115.49,220.24,187.59Z" style="fill:#2d6fe0"/><path d="M.49,111.4s124.65,69.17,164.63,126.45S361.47,372.44,361.47,372.44" style="fill:none;stroke:#535461;stroke-miterlimit:10;stroke-width:2px"/><path d="M284.56,42.35c54.23,39.22,76.91,100.59,76.91,100.59s-65.36-2.24-119.61-41.45S165,.87,165,.87,230.31,3.11,284.56,42.35Z" style="fill:#2d6fe0"/><path d="M165,.87s67.84,37.66,89.59,68.83,106.9,73.24,106.9,73.24" style="fill:none;stroke:#535461;stroke-miterlimit:10;stroke-width:2px"/><path d="M440.19,139.83c-62.3,68.47-75.48,157.95-75.48,157.95s87.85-21.56,150.09-90S590.28,49.78,590.28,49.78,502.5,71.36,440.19,139.83Z" style="fill:#2d6fe0"/><path d="M590.34,49.8S509.18,120,488.55,168.35,364.71,297.78,364.71,297.78" style="fill:none;stroke:#535461;stroke-miterlimit:10;stroke-width:2px"/></g></g></svg>