<svg xmlns="http://www.w3.org/2000/svg" viewBox="0 0 1011.51 667.88"><g id="Layer_2" data-name="Layer 2"><g id="Layer_1-2" data-name="Layer 1"><path d="M1.92,312.92H95.83v128H8.8c-.23,1.31-.45,2.63-.69,4H95.83V548.09l-.45-.16c-2.48-1-4.94-2-7.4-3.13l-1.57-.71q-3.7-1.76-7.4-3.7c-.86-.46-1.73-.93-2.58-1.41a153.73,153.73,0,0,1-36.89-28.83c-.32-.3-.62-.63-.93-.92-1.5-1.63-3-3.28-4.39-5l-1.58-1.85c-1.68-2.07-3.31-4.19-4.89-6.33-.23-.32-.46-.63-.7-.93a138.08,138.08,0,0,1-15.91-28.77c-.13-.31-.24-.64-.36-.93q-1.9-4.9-3.38-9.9c-.42-1.39-.83-2.77-1.18-4.23-.13-.42-.24-.84-.34-1.25C.62,429.56,0,408.26,0,387.1v-7.41c0-8.56.1-17.17.25-25.77,0-2.23.09-4.45.14-6.69q.19-8.52.55-17.05c.06-1.58.13-3.15.22-4.72a24.65,24.65,0,0,1,.14-2.72C1.52,319.44,1.7,316.18,1.92,312.92Z" style="fill:#2d6fe0;opacity:0.10000000149011612;isolation:isolate"/><path d="M95.83,170.42H44.32A391,391,0,0,1,71.71,132.7c7.66-9.4,15.73-18.56,24.12-27.38Z" style="fill:#2d6fe0;opacity:0.10000000149011612;isolation:isolate"/><path d="M95.83,174.38V309H2.22c0-.39.07-.79.09-1.18.09-1.06.17-2.12.26-3.18.1-1.24.21-2.49.34-3.7s.25-2.69.38-4,.27-2.71.43-4.05.3-2.68.46-4,.32-2.69.49-4c.14-1.11.29-2.21.44-3.32.21-1.56.43-3.14.67-4.69a5.21,5.21,0,0,1,.1-.69,318.58,318.58,0,0,1,6.9-33.79,250.39,250.39,0,0,1,11.61-34.24,256.54,256.54,0,0,1,17.47-33.64Z" style="fill:#2d6fe0;opacity:0.10000000149011612;isolation:isolate"/><path d="M118.24,312.91v128H318.81v-128Zm0,132V554.77c1.15.25,2.29.48,3.42.67,1.53.3,3.06.57,4.62.8.3,0,.61.09.93.12.61.1,1.24.18,1.85.27,1.55.21,3.08.38,4.63.52.73.08,1.47.14,2.21.2l1.78.14h0c1,.07,1.94.13,2.89.15.59,0,1.18.06,1.8.08H149a23.56,23.56,0,0,0,2.38-.08h.06a13.09,13.09,0,0,0,1.65-.07h.46a8.79,8.79,0,0,0,1.37-.07h.33l3.1-.24c1-.09,2-.21,3.08-.32l2.11-.25a185.08,185.08,0,0,0,25.4-5.4c18.7-5.22,37-12.52,55.7-17.87,24.18-6.89,50.89-10.28,74.25-1.85V444.86ZM318.81,170.42V0a257.88,257.88,0,0,0-65.17,7.64c-50.78,12.76-96.35,40.43-135.4,75.77v87h10.07v4H118.24V309H318.81V174.37H169.64v-4Zm257.61-57.56c-12.57-.45-25.06-4.43-36.35-10.57-21.61-11.75-38.86-29.89-58.14-45.21C441.86,25.19,392.18,6,341.21,1.17V170.42H627.52l.71-.75Zm26.08-4.63,27.66,30.35V100.27c-9.26,1.15-17.38,3.88-27.62,7.92Zm27.66,473.84V444.86H571.23c-.16-.59-.32-1.18-.5-1.77.18.59.32,1.18.49,1.77h-230v99.23c2.19,1.62,4.34,3.32,6.48,5h0c2.3,1.85,4.58,3.8,6.87,5.72l2.3,1.9c1.1.93,2.21,1.85,3.33,2.72q3.33,2.71,6.73,5.33c1.12.93,2.26,1.76,3.4,2.63a465.19,465.19,0,0,0,57,37.3q6.69,3.69,13.5,7.22,4.54,2.32,9.13,4.57,6.87,3.36,13.87,6.48h0A509.81,509.81,0,0,0,599,662.36q15.52,2.29,31.19,3.61V582.06h0ZM341.24,174.37V309h289V174.37Zm0,138.54v128h289v-128Zm311.38-212.8v42.72l35.3-38.73q-17.55-2.82-35.3-4Zm0,212.85v128h281v-128Zm280,279.27,1-147.37h-281V667.44a504.61,504.61,0,0,0,54.31-.65h.32Q720.2,666,733,664.42h.2a474.87,474.87,0,0,0,132.49-35.35M987.85,334c-1.05-2.49-2.15-5-3.27-7.41-2.09-4.62-4.31-9.12-6.58-13.61H956.07V440.91h55.44c0-36.24-9.2-73.24-23.63-107ZM956.07,444.9V571.66c15.62-15,28.81-32.1,38.31-51.67,11.43-23.58,16.66-49.11,17.08-75.1Zm0-169.24V309h19.87a360.42,360.42,0,0,0-19.84-33.36ZM765.47,125.22l-4.39-1.67a400.62,400.62,0,0,0-47.48-14.26l-54,59.27h0l-1,1.11.7.75H851.49a411,411,0,0,0-86-45.25Zm91.66,49.19H656.56L652.62,178V309H933.7V245.53a400.32,400.32,0,0,0-76.55-71.16Z" style="fill:#2d6fe0;opacity:0.10000000149011612;isolation:isolate"/><path d="M95.83,242.26V309H2.22c0-.39.07-.79.09-1.18.09-1.06.17-2.12.26-3.18.1-1.24.21-2.49.34-3.7s.25-2.69.38-4,.27-2.71.43-4.05.3-2.68.46-4,.32-2.69.49-4c.14-1.11.29-2.21.44-3.32.21-1.56.43-3.14.67-4.69a5.21,5.21,0,0,1,.1-.69,318.58,318.58,0,0,1,6.9-33.79Z" style="fill:#2d6fe0;opacity:0.10000000149011612;isolation:isolate"/><path d="M1.92,312.92H95.83v128H8.8c-.23,1.31-.45,2.63-.69,4H95.83V548.09l-.45-.16c-2.48-1-4.94-2-7.4-3.13l-1.57-.71q-3.7-1.76-7.4-3.7c-.86-.46-1.73-.93-2.58-1.41a153.73,153.73,0,0,1-36.89-28.83c-.32-.3-.62-.63-.93-.92-1.5-1.63-3-3.28-4.39-5l-1.58-1.85c-1.68-2.07-3.31-4.19-4.89-6.33-.23-.32-.46-.63-.7-.93a138.08,138.08,0,0,1-15.91-28.77c-.13-.31-.24-.64-.36-.93q-1.9-4.9-3.38-9.9c-.42-1.39-.83-2.77-1.18-4.23-.13-.42-.24-.84-.34-1.25C.62,429.56,0,408.26,0,387.1v-7.41c0-8.56.1-17.17.25-25.77,0-2.23.09-4.45.14-6.69q.19-8.52.55-17.05c.06-1.58.13-3.15.22-4.72a24.65,24.65,0,0,1,.14-2.72C1.52,319.44,1.7,316.18,1.92,312.92Z" style="fill:#2d6fe0;opacity:0.10000000149011612;isolation:isolate"/><polygon points="188.85 193.64 188.85 308.96 118.25 308.96 118.25 193.64 128.31 193.64 128.31 154.59 169.63 154.59 169.63 193.64 188.85 193.64" style="fill:#2d6fe0;opacity:0.10000000149011612;isolation:isolate"/><rect x="118.25" y="312.91" width="70.6" height="127.99" style="fill:#2d6fe0;opacity:0.10000000149011612;isolation:isolate"/><path d="M118.24,444.87h70.61v106.4a185,185,0,0,1-25.4,5.39l-2.11.26-3.08.33c-1,.1-2.07.17-3.1.24h-.32c-.45,0-.93,0-1.36.06H153c-.56,0-1.11.06-1.67.07h0c-.79,0-1.57.06-2.38.07h-6.55l-1.78-.07c-.93,0-1.93-.1-2.89-.16h0l-1.78-.13-2.21-.2c-1.55-.14-3.1-.32-4.62-.53l-1.86-.26-.92-.13c-1.55-.24-3.07-.5-4.63-.8-1.13-.19-2.26-.43-3.41-.66Z" style="fill:#2d6fe0;opacity:0.10000000149011612;isolation:isolate"/><rect x="571.98" y="180.02" width="58.22" height="128.93" style="fill:#2d6fe0;opacity:0.10000000149011612;isolation:isolate"/><polygon points="630.2 312.91 630.2 440.91 341.24 440.91 341.24 385.7 495.16 385.7 495.16 418.27 571.98 418.27 571.98 312.91 630.2 312.91" style="fill:#2d6fe0;opacity:0.10000000149011612;isolation:isolate"/><path d="M631.12,582.1h-.93v84q-15.63-1.32-31.18-3.6A509.83,509.83,0,0,1,463.87,623q-18.62-8.38-36.49-18.3a466.07,466.07,0,0,1-57-37.3q-6.81-5.22-13.44-10.68c-3.06-2.52-6.11-5.11-9.19-7.63-2.14-1.73-4.29-3.43-6.48-5.06V444.87h230c-.16-.6-.31-1.19-.48-1.77.18.58.34,1.17.5,1.77h59V582C630.51,582.05,630.81,582.08,631.12,582.1Z" style="fill:#2d6fe0;opacity:0.10000000149011612;isolation:isolate"/><path d="M782,170.42H744.09V158.63h17V123.52q2.21.8,4.4,1.65v33.46H782Z" style="fill:#2d6fe0;opacity:0.10000000149011612;isolation:isolate"/><path d="M873.42,309H687.19l.06.05-.08-.05H652.62V180h9.79v95.3h44.74V218.89h37V174.38H782v44.54h37v56.44h54.43Z" style="fill:#2d6fe0;opacity:0.10000000149011612;isolation:isolate"/><path d="M652.62,312.91v128h220.8v-128ZM933.36,591.57l.3-101.31H873.42V444.92H652.62V667.44a504.61,504.61,0,0,0,54.31-.65h.32Q720.2,666,733,664.42h.2a474.87,474.87,0,0,0,132.49-35.35" style="fill:#2d6fe0;opacity:0.10000000149011612;isolation:isolate"/><rect x="599.01" y="215.86" width="31.19" height="40.42" style="fill:#2d6fe0;opacity:0.10000000149011612;isolation:isolate"/><rect x="599.01" y="299.65" width="31.19" height="9.31" style="fill:#2d6fe0;opacity:0.10000000149011612;isolation:isolate"/><rect x="599.01" y="312.91" width="31.19" height="27.16" style="fill:#2d6fe0;opacity:0.10000000149011612;isolation:isolate"/><rect x="599.01" y="383.44" width="31.19" height="40.42" style="fill:#2d6fe0;opacity:0.10000000149011612;isolation:isolate"/><rect x="599.01" y="467.23" width="31.19" height="40.42" style="fill:#2d6fe0;opacity:0.10000000149011612;isolation:isolate"/><path d="M630.19,582a4.79,4.79,0,0,1,.93.06h-.93v9.39H599V551h31.18Z" style="fill:#2d6fe0;opacity:0.10000000149011612;isolation:isolate"/><path d="M630.19,634.79V666q-15.63-1.34-31.18-3.6V634.79Z" style="fill:#2d6fe0;opacity:0.10000000149011612;isolation:isolate"/><rect x="341.24" y="437.94" width="133.67" height="2.97" style="fill:#2d6fe0;opacity:0.10000000149011612;isolation:isolate"/><rect x="341.24" y="444.86" width="133.67" height="11.38" style="fill:#2d6fe0;opacity:0.10000000149011612;isolation:isolate"/><rect x="341.24" y="493.54" width="133.67" height="18.3" style="fill:#2d6fe0;opacity:0.10000000149011612;isolation:isolate"/><path d="M474.9,549.15v18.3H370.35q-6.81-5.21-13.45-10.68c-3.06-2.52-6.1-5.11-9.19-7.62Z" style="fill:#2d6fe0;opacity:0.10000000149011612;isolation:isolate"/><path d="M474.9,604.75V623h-11q-18.62-8.4-36.49-18.31Z" style="fill:#2d6fe0;opacity:0.10000000149011612;isolation:isolate"/><rect x="706.94" y="325.32" width="26.31" height="26.31" style="fill:#2d6fe0;opacity:0.10000000149011612;isolation:isolate"/><rect x="137.2" y="202.71" width="26.31" height="26.31" style="fill:#2d6fe0;opacity:0.10000000149011612;isolation:isolate"/><rect x="137.2" y="263.84" width="26.31" height="26.31" style="fill:#2d6fe0;opacity:0.10000000149011612;isolation:isolate"/><rect x="137.2" y="324.96" width="26.31" height="26.31" style="fill:#2d6fe0;opacity:0.10000000149011612;isolation:isolate"/><rect x="137.2" y="386.07" width="26.31" height="26.31" style="fill:#2d6fe0;opacity:0.10000000149011612;isolation:isolate"/><rect x="137.2" y="447.19" width="26.31" height="26.31" style="fill:#2d6fe0;opacity:0.10000000149011612;isolation:isolate"/><rect x="137.2" y="508.31" width="26.31" height="26.31" style="fill:#2d6fe0;opacity:0.10000000149011612;isolation:isolate"/><rect x="807.39" y="325.32" width="26.31" height="26.31" style="fill:#2d6fe0;opacity:0.10000000149011612;isolation:isolate"/><rect x="706.94" y="390.22" width="26.31" height="26.31" style="fill:#2d6fe0;opacity:0.10000000149011612;isolation:isolate"/><rect x="807.39" y="390.22" width="26.31" height="26.31" style="fill:#2d6fe0;opacity:0.10000000149011612;isolation:isolate"/><rect x="706.94" y="455.12" width="26.31" height="26.31" style="fill:#2d6fe0;opacity:0.10000000149011612;isolation:isolate"/><rect x="807.39" y="455.12" width="26.31" height="26.31" style="fill:#2d6fe0;opacity:0.10000000149011612;isolation:isolate"/><rect x="706.94" y="520.02" width="26.31" height="26.31" style="fill:#2d6fe0;opacity:0.10000000149011612;isolation:isolate"/><rect x="807.39" y="520.02" width="26.31" height="26.31" style="fill:#2d6fe0;opacity:0.10000000149011612;isolation:isolate"/><rect x="706.94" y="584.93" width="26.31" height="26.31" style="fill:#2d6fe0;opacity:0.10000000149011612;isolation:isolate"/><rect x="807.39" y="584.93" width="26.31" height="26.31" style="fill:#2d6fe0;opacity:0.10000000149011612;isolation:isolate"/><polygon points="706.94 666.79 706.94 649.82 733.25 649.82 733.25 664.38 706.94 666.79" style="fill:#2d6fe0;opacity:0.10000000149011612;isolation:isolate"/><path d="M5.77,276.07v15.05H95.83V276.07Zm9,14.11H7.4V277h7.4Zm9,0h-7.4V277h7.4Zm8.95,0h-7.4V277h7.4Zm9,0h-7.4V277h7.41Zm8.95,0h-7.4V277h7.4Zm9,0h-7.4V277h7.4Zm9,0h-7.4V277h7.4Zm9,0h-7.4V277h7.4Zm9,0H79V277h7.41Zm8.95,0H88V277h7.4Z" style="fill:#2d6fe0;opacity:0.10000000149011612;isolation:isolate"/><path d="M5.77,319.87v15.05H95.83V319.87Zm9,14.1H7.4V320.82h7.4Zm9,0h-7.4V320.82h7.4Zm8.95,0h-7.4V320.82h7.4Zm9,0h-7.4V320.82h7.41Zm8.95,0h-7.4V320.82h7.4Zm9,0h-7.4V320.82h7.4Zm9,0h-7.4V320.82h7.4Zm9,0h-7.4V320.82h7.4Zm9,0H79V320.82h7.41Zm8.95,0H88V320.82h7.4Z" style="fill:#2d6fe0;opacity:0.10000000149011612;isolation:isolate"/><path d="M5.77,363.69v15.08H95.83V363.69Zm9,14.1H7.4V364.63h7.4Zm9,0h-7.4V364.63h7.4Zm8.95,0h-7.4V364.63h7.4Zm9,0h-7.4V364.63h7.41Zm8.95,0h-7.4V364.63h7.4Zm9,0h-7.4V364.63h7.4Zm9,0h-7.4V364.63h7.4Zm9,0h-7.4V364.63h7.4Zm9,0H79V364.63h7.41Zm8.95,0H88V364.63h7.4Z" style="fill:#2d6fe0;opacity:0.10000000149011612;isolation:isolate"/><path d="M5.77,407.51v15H95.83v-15Zm9,14.1H7.4V408.44h7.4Zm9,0h-7.4V408.44h7.4Zm8.95,0h-7.4V408.44h7.4Zm9,0h-7.4V408.44h7.41Zm8.95,0h-7.4V408.44h7.4Zm9,0h-7.4V408.44h7.4Zm9,0h-7.4V408.44h7.4Zm9,0h-7.4V408.44h7.4Zm9,0H79V408.44h7.41Zm8.95,0H88V408.44h7.4Z" style="fill:#2d6fe0;opacity:0.10000000149011612;isolation:isolate"/><path d="M6.16,451.32c.36,1.41.77,2.83,1.2,4.22v-3.28h7.4v13.16h-4c.12.3.24.63.36.92H95.83v-15Zm17.58,14.1h-7.4V452.26h7.4Zm9,0h-7.4V452.26h7.4Zm9,0H34.23V452.26h7.41Zm9,0h-7.4V452.26h7.4Zm9,0H52.17V452.26h7.41Zm9,0h-7.4V452.26h7.4Zm9,0H70.1V452.26h7.4Zm9,0h-7.4V452.26h7.4Zm9,0H88V452.26h7.4Z" style="fill:#2d6fe0;opacity:0.10000000149011612;isolation:isolate"/><path d="M27.07,495.13c.23.3.46.63.7.93h4.89v6.32c.53.63,1.05,1.26,1.58,1.85V496h7.4v13.21h-3c.29.3.58.62.92.92H95.85v-15Zm23.51,14.1h-7.4V496.08h7.4Zm9,0h-7.4V496.08h7.4Zm9,0h-7.4V496.08h7.4Zm9,0h-7.4V496.08h7.4Zm9,0H79V496.08h7.41Zm8.95,0H88V496.08h7.4Z" style="fill:#2d6fe0;opacity:0.10000000149011612;isolation:isolate"/><path d="M76.47,538.94c.84.49,1.7.93,2.57,1.41v-.46h7.4v4.16l1.58.73v-4.89h7.4v8a2.35,2.35,0,0,0,.44.17v-9.12Z" style="fill:#2d6fe0;opacity:0.10000000149011612;isolation:isolate"/><path d="M687.19,309ZM630.19,582ZM570.73,443.09c.18.59.32,1.18.49,1.77h0C571.07,444.27,570.91,443.68,570.73,443.09ZM687.19,308.93ZM128.35,170.39v4h41.33v-4ZM630.19,582ZM570.73,443.09c.18.59.32,1.18.49,1.77h0C571.07,444.27,570.91,443.68,570.73,443.09ZM687.19,308.93ZM630.19,582ZM570.73,443.09c.18.59.32,1.18.49,1.77h0C571.07,444.27,570.91,443.68,570.73,443.09Z" style="fill:#2d6fe0;opacity:0.10000000149011612;isolation:isolate"/><path d="M760.3,363.7l.28-.29Z" style="fill:#ffb0b1"/><path d="M743,343.24h0a2.37,2.37,0,0,1,3,1.54l8,25.24-.6,4,.59.61.79-5.29-8.06-25.24a2.36,2.36,0,0,0-3-1.53h0a2.4,2.4,0,0,0-1.23.92A4.25,4.25,0,0,1,743,343.24Z" style="fill:#fff;opacity:0.10000000149011612;isolation:isolate"/></g></g></svg>